<svg viewBox="0 0 200 200" xmlns="http://www.w3.org/2000/svg"><g fill="#272c6b"><path d="m197.6 39.1h-194.87c-1.1 0-2-.9-2-2s.9-2 2-2h194.87c1.1 0 2 .9 2 2s-.9 2-2 2z"/><path d="m155.92 70.55h-19.77c-1.1 0-2-.9-2-2s.9-2 2-2h19.77c1.1 0 2 .9 2 2s-.9 2-2 2z"/><path d="m105.97 70.55h-103.24c-1.1 0-2-.9-2-2s.9-2 2-2h103.24c1.1 0 2 .9 2 2s-.9 2-2 2z"/><path d="m197.6 102h-10.42c-1.1 0-2-.9-2-2s.9-2 2-2h10.42c1.1 0 2 .9 2 2s-.9 2-2 2z"/><path d="m143.29 102h-19.57c-1.1 0-2-.9-2-2s.9-2 2-2h19.57c1.1 0 2 .9 2 2s-.9 2-2 2z"/><path d="m28.03 102h-25.3c-1.1 0-2-.9-2-2s.9-2 2-2h25.3c1.1 0 2 .9 2 2s-.9 2-2 2z"/><path d="m197.6 133.45h-34.03c-1.1 0-2-.9-2-2s.9-2 2-2h34.03c1.1 0 2 .9 2 2s-.9 2-2 2z"/><path d="m127.46 133.45h-45.96c-1.1 0-2-.9-2-2s.9-2 2-2h45.96c1.1 0 2 .9 2 2s-.9 2-2 2z"/><path d="m6.89 133.45h-4.16c-1.1 0-2-.9-2-2s.9-2 2-2h4.15c1.1 0 2 .9 2 2s-.9 2-2 2z"/><path d="m197.6 164.9h-49.99c-1.1 0-2-.9-2-2s.9-2 2-2h49.99c1.1 0 2 .9 2 2s-.9 2-2 2z"/><path d="m109.07 164.9h-106.34c-1.1 0-2-.9-2-2s.9-2 2-2h106.33c1.1 0 2 .9 2 2s-.9 2-2 2z"/><path d="m23.68 144.27c-5.46 0-10.31-2.68-12.16-7.27-2.58-6.42 1.65-14.2 9.44-17.33 3.7-1.49 7.66-1.73 11.15-.69 3.66 1.09 6.38 3.45 7.66 6.64 2.59 6.42-1.65 14.2-9.44 17.33-2.21.89-4.48 1.31-6.65 1.31zm3.96-21.93c-1.71 0-3.48.35-5.19 1.04-5.74 2.31-8.98 7.75-7.22 12.13s7.87 6.06 13.61 3.74c5.74-2.31 8.98-7.75 7.22-12.13-.82-2.04-2.63-3.57-5.1-4.31-1.06-.32-2.17-.47-3.32-.47z"/><path d="m58.84 144.27c-5.46 0-10.31-2.68-12.16-7.27-2.58-6.42 1.65-14.2 9.44-17.33 7.79-3.14 16.23-.46 18.82 5.96 2.58 6.42-1.65 14.2-9.44 17.33-2.21.89-4.48 1.31-6.65 1.31zm3.99-21.93c-1.69 0-3.47.33-5.22 1.04-5.74 2.31-8.98 7.75-7.22 12.13s7.87 6.05 13.61 3.74 8.98-7.75 7.22-12.13c-1.22-3.04-4.55-4.78-8.39-4.78z"/><path d="m38.54 131.29c-1.1 0-2-.9-2-2v-51.28c0-1.1.9-2 2-2s2 .9 2 2v51.28c0 1.1-.9 2-2 2z"/><path d="m73.69 131.29c-1.1 0-2-.9-2-2v-51.28c0-1.1.9-2 2-2s2 .9 2 2v51.28c0 1.1-.9 2-2 2z"/><path d="m131.51 176.49c-.32 0-.64-.08-.93-.23l-12.36-6.5c-.98-.51-1.35-1.72-.84-2.7l58.18-110.7c.25-.47.67-.82 1.18-.98s1.05-.11 1.52.14l12.36 6.5c.98.51 1.35 1.72.84 2.7l-58.18 110.7c-.25.47-.67.82-1.18.98-.19.06-.39.09-.59.09zm-9.66-9.33 8.82 4.64 56.32-107.16-8.82-4.64z"/><path d="m172.6 110c-.67 0-1.31-.33-1.7-.94-.59-.94-.31-2.17.63-2.76l6.07-3.82 17.62-33.53-10-5.26c-.98-.51-1.35-1.72-.84-2.7s1.72-1.35 2.7-.84l11.78 6.19c.47.25.82.67.98 1.18s.11 1.05-.14 1.52l-18.8 35.78c-.16.31-.41.57-.71.76l-6.52 4.1c-.33.21-.7.31-1.06.31z"/><path d="m115.92 191.14c-.32 0-.64-.08-.93-.23-.75-.4-1.17-1.23-1.05-2.07l3.22-21.14c.17-1.09 1.19-1.84 2.28-1.68 1.09.17 1.84 1.19 1.68 2.28l-2.35 15.42 11.37-10.68c.8-.76 2.07-.72 2.83.09s.72 2.07-.09 2.83l-15.58 14.64c-.38.36-.87.54-1.37.54z"/><path d="m134.3 171.18c-.31 0-.63-.07-.93-.23l-12.36-6.5c-.98-.51-1.35-1.72-.84-2.7s1.72-1.35 2.7-.84l12.36 6.5c.98.51 1.35 1.72.84 2.7-.36.68-1.05 1.07-1.77 1.07z"/><path d="m73.69 97.21h-35.16c-1.1 0-2-.9-2-2v-17.2c0-1.1.9-2 2-2h35.16c1.1 0 2 .9 2 2v17.2c0 1.1-.9 2-2 2zm-33.15-4h31.16v-13.2h-31.16z"/><path d="m99.93 112.86c-1.53 0-3.04-.21-4.46-.64-3.66-1.09-6.38-3.45-7.66-6.64s-.96-6.78.92-10.1c1.79-3.18 4.82-5.74 8.52-7.23 7.79-3.14 16.23-.46 18.82 5.96 2.58 6.42-1.65 14.2-9.44 17.33-2.19.88-4.47 1.33-6.69 1.33zm4.02-21.94c-1.68 0-3.47.33-5.22 1.04-2.86 1.15-5.18 3.1-6.53 5.49-1.27 2.24-1.51 4.6-.69 6.64s2.63 3.57 5.1 4.31c2.63.79 5.65.59 8.51-.57 5.74-2.31 8.98-7.75 7.22-12.13-1.22-3.04-4.55-4.78-8.39-4.78z"/><path d="m114.82 99.88c-1.1 0-2-.9-2-2v-51.28c0-.78.45-1.48 1.15-1.81s1.53-.22 2.13.28c.57.48 14.01 11.87 14.01 23.48s-4.68 15.28-5.21 15.67c-.89.66-2.14.47-2.8-.42s-.47-2.14.42-2.8c0 0 3.59-3 3.59-12.46 0-6.53-5.57-13.41-9.3-17.28v46.61c0 1.1-.9 2-2 2z"/></g></svg>