<svg viewBox="0 0 200 200" xmlns="http://www.w3.org/2000/svg"><g fill="#272c6b"><path d="m58.91 39.61c1.07 0 1.95.87 1.95 1.95v14.79c0 1.07-.87 1.95-1.95 1.95h-52.96c-1.07 0-1.95-.87-1.95-1.95v-14.79c0-1.07.87-1.95 1.95-1.95zm0-4h-52.96c-3.29 0-5.95 2.66-5.95 5.95v14.79c0 3.28 2.66 5.94 5.95 5.94h52.96c3.28 0 5.95-2.66 5.95-5.95v-14.79c0-3.28-2.66-5.95-5.95-5.95z"/><path d="m8.17 107.67c1.07 0 1.95.87 1.95 1.95v14.79c0 1.07-.87 1.95-1.95 1.95h-2.23c-1.07 0-1.95-.87-1.95-1.95v-14.79c0-1.07.87-1.95 1.95-1.95zm0-4h-2.23c-3.28 0-5.94 2.67-5.94 5.95v14.79c0 3.29 2.66 5.95 5.95 5.95h2.23c3.28 0 5.95-2.66 5.95-5.95v-14.79c0-3.28-2.66-5.95-5.95-5.95z"/><path d="m25.08 107.67c1.07 0 1.95.87 1.95 1.95v14.79c0 1.07-.87 1.95-1.95 1.95h-2.23c-1.07 0-1.95-.87-1.95-1.95v-14.79c0-1.07.87-1.95 1.95-1.95zm0-4h-2.23c-3.28 0-5.95 2.66-5.95 5.95v14.79c0 3.28 2.66 5.95 5.95 5.95h2.23c3.28 0 5.95-2.66 5.95-5.95v-14.79c0-3.28-2.66-5.95-5.95-5.95z"/><path d="m41.99 107.67c1.07 0 1.95.87 1.95 1.95v14.79c0 1.07-.87 1.95-1.95 1.95h-2.23c-1.07 0-1.95-.87-1.95-1.95v-14.79c0-1.07.87-1.95 1.95-1.95zm0-4h-2.23c-3.28 0-5.95 2.66-5.95 5.95v14.79c0 3.28 2.66 5.95 5.95 5.95h2.23c3.28 0 5.95-2.66 5.95-5.95v-14.79c0-3.28-2.66-5.95-5.95-5.95z"/><path d="m58.91 107.67c1.07 0 1.95.87 1.95 1.95v14.79c0 1.07-.87 1.95-1.95 1.95h-2.23c-1.07 0-1.95-.87-1.95-1.95v-14.79c0-1.07.87-1.95 1.95-1.95zm0-4h-2.23c-3.28 0-5.95 2.66-5.95 5.95v14.79c0 3.28 2.66 5.95 5.95 5.95h2.23c3.28 0 5.95-2.66 5.95-5.95v-14.79c0-3.28-2.66-5.95-5.95-5.95z"/><path d="m75.82 107.67c1.07 0 1.95.87 1.95 1.95v14.79c0 1.07-.87 1.95-1.95 1.95h-2.23c-1.07 0-1.95-.87-1.95-1.95v-14.79c0-1.07.87-1.95 1.95-1.95zm0-4h-2.23c-3.28 0-5.95 2.66-5.95 5.95v14.79c0 3.28 2.66 5.95 5.95 5.95h2.23c3.28 0 5.95-2.66 5.95-5.95v-14.79c0-3.28-2.66-5.95-5.95-5.95z"/><path d="m92.73 107.67c1.07 0 1.95.87 1.95 1.95v14.79c0 1.07-.87 1.95-1.95 1.95h-2.23c-1.07 0-1.95-.87-1.95-1.95v-14.79c0-1.07.87-1.95 1.95-1.95zm0-4h-2.23c-3.28 0-5.95 2.66-5.95 5.95v14.79c0 3.28 2.66 5.95 5.95 5.95h2.23c3.28 0 5.95-2.66 5.95-5.95v-14.79c0-3.28-2.66-5.95-5.95-5.95z"/><path d="m109.64 107.67c1.07 0 1.95.87 1.95 1.95v14.79c0 1.07-.87 1.95-1.95 1.95h-2.23c-1.07 0-1.95-.87-1.95-1.95v-14.79c0-1.07.87-1.95 1.95-1.95zm0-4h-2.23c-3.28 0-5.95 2.66-5.95 5.95v14.79c0 3.28 2.66 5.95 5.95 5.95h2.23c3.28 0 5.95-2.66 5.95-5.95v-14.79c0-3.28-2.66-5.95-5.95-5.95z"/><path d="m126.55 107.67c1.07 0 1.95.87 1.95 1.95v14.79c0 1.07-.87 1.95-1.95 1.95h-2.23c-1.07 0-1.95-.87-1.95-1.95v-14.79c0-1.07.87-1.95 1.95-1.95zm0-4h-2.23c-3.28 0-5.95 2.66-5.95 5.95v14.79c0 3.28 2.66 5.95 5.95 5.95h2.23c3.28 0 5.95-2.66 5.95-5.95v-14.79c0-3.28-2.66-5.95-5.95-5.95z"/><path d="m143.46 107.67c1.07 0 1.95.87 1.95 1.95v14.79c0 1.07-.87 1.95-1.95 1.95h-2.23c-1.07 0-1.95-.87-1.95-1.95v-14.79c0-1.07.87-1.95 1.95-1.95zm0-4h-2.23c-3.28 0-5.95 2.66-5.95 5.95v14.79c0 3.28 2.66 5.95 5.95 5.95h2.23c3.28 0 5.95-2.66 5.95-5.95v-14.79c0-3.28-2.66-5.95-5.95-5.95z"/><path d="m160.37 107.67c1.07 0 1.95.87 1.95 1.95v14.79c0 1.07-.87 1.95-1.95 1.95h-2.23c-1.07 0-1.95-.87-1.95-1.95v-14.79c0-1.07.87-1.95 1.95-1.95zm0-4h-2.23c-3.28 0-5.95 2.66-5.95 5.95v14.79c0 3.28 2.66 5.95 5.95 5.95h2.23c3.28 0 5.95-2.66 5.95-5.95v-14.79c0-3.28-2.66-5.95-5.95-5.95z"/><path d="m177.28 107.67c1.07 0 1.95.87 1.95 1.95v14.79c0 1.07-.87 1.95-1.95 1.95h-2.23c-1.07 0-1.95-.87-1.95-1.95v-14.79c0-1.07.87-1.95 1.95-1.95zm0-4h-2.23c-3.28 0-5.95 2.66-5.95 5.95v14.79c0 3.28 2.66 5.95 5.95 5.95h2.23c3.28 0 5.95-2.66 5.95-5.95v-14.79c0-3.28-2.66-5.95-5.95-5.95z"/><path d="m194.19 107.67c1.07 0 1.95.87 1.95 1.95v14.79c0 1.07-.87 1.95-1.95 1.95h-2.23c-1.07 0-1.95-.87-1.95-1.95v-14.79c0-1.07.87-1.95 1.95-1.95zm0-4h-2.23c-3.28 0-5.95 2.66-5.95 5.95v14.79c0 3.28 2.66 5.95 5.95 5.95h2.23c3.28 0 5.95-2.66 5.95-5.95v-14.79c0-3.28-2.66-5.95-5.95-5.95z"/><path d="m126.55 39.61c1.07 0 1.95.87 1.95 1.95v14.79c0 1.07-.87 1.95-1.95 1.95h-52.96c-1.07 0-1.95-.87-1.95-1.95v-14.79c0-1.07.87-1.95 1.95-1.95zm0-4h-52.96c-3.28 0-5.95 2.66-5.95 5.95v14.79c0 3.28 2.66 5.95 5.95 5.95h52.96c3.28 0 5.95-2.66 5.95-5.95v-14.79c0-3.28-2.66-5.95-5.95-5.95z"/><path d="m194.05 39.61c1.07 0 1.95.87 1.95 1.95v14.79c0 1.07-.87 1.95-1.95 1.95h-52.82c-1.07 0-1.95-.87-1.95-1.95v-14.79c0-1.07.87-1.95 1.95-1.95zm0-4h-52.82c-3.28 0-5.95 2.66-5.95 5.95v14.79c0 3.28 2.66 5.95 5.95 5.95h52.82c3.28 0 5.95-2.66 5.95-5.95v-14.79c0-3.28-2.66-5.95-5.95-5.95z"/><path d="m182.8 73.64c1.07 0 1.95.87 1.95 1.95v14.79c0 1.07-.87 1.95-1.95 1.95h-126.12c-1.07 0-1.95-.87-1.95-1.95v-14.79c0-1.07.87-1.95 1.95-1.95zm0-4h-126.12c-3.28 0-5.95 2.66-5.95 5.95v14.79c0 3.28 2.66 5.95 5.95 5.95h126.12c3.28 0 5.95-2.66 5.95-5.95v-14.79c0-3.28-2.66-5.95-5.95-5.95z"/><path d="m92.73 141.71c1.07 0 1.95.87 1.95 1.95v14.79c0 1.07-.87 1.95-1.95 1.95h-36.05c-1.07 0-1.95-.87-1.95-1.95v-14.79c0-1.07.87-1.95 1.95-1.95zm0-4h-36.05c-3.28 0-5.95 2.66-5.95 5.95v14.79c0 3.28 2.66 5.95 5.95 5.95h36.05c3.28 0 5.95-2.66 5.95-5.95v-14.79c0-3.28-2.66-5.95-5.95-5.95z"/><path d="m177.28 141.71c1.07 0 1.95.87 1.95 1.95v14.79c0 1.07-.87 1.95-1.95 1.95h-36.05c-1.07 0-1.95-.87-1.95-1.95v-14.79c0-1.07.87-1.95 1.95-1.95zm0-4h-36.05c-3.28 0-5.95 2.66-5.95 5.95v14.79c0 3.28 2.66 5.95 5.95 5.95h36.05c3.28 0 5.95-2.66 5.95-5.95v-14.79c0-3.28-2.66-5.95-5.95-5.95z"/><path d="m71.56 91.4c-1.1 0-2-.9-2-2v-12.83c0-1.1.9-2 2-2s2 .9 2 2v12.83c0 1.1-.9 2-2 2z"/><path d="m77.85 88.87c-1.1 0-2-.9-2-2v-7.78c0-1.1.9-2 2-2s2 .9 2 2v7.78c0 1.1-.9 2-2 2z"/><path d="m84.15 86.97c-1.1 0-2-.9-2-2v-3.97c0-1.1.9-2 2-2s2 .9 2 2v3.97c0 1.1-.9 2-2 2z"/><path d="m69.23 155.77h-2.42c-1.1 0-2-.9-2-2s.9-2 2-2h2.42c1.1 0 2 .9 2 2s-.9 2-2 2z"/><path d="m69.23 150.54h-2.42c-1.1 0-2-.9-2-2s.9-2 2-2h2.42c1.1 0 2 .9 2 2s-.9 2-2 2z"/><path d="m61.2 158.38h-2.41c-1.1 0-2-.9-2-2s.9-2 2-2h2.41c1.1 0 2 .9 2 2s-.9 2-2 2z"/><path d="m61.2 153.15h-2.41c-1.1 0-2-.9-2-2s.9-2 2-2h2.41c1.1 0 2 .9 2 2s-.9 2-2 2z"/><path d="m77.36 158.06h-2.41c-1.1 0-2-.9-2-2s.9-2 2-2h2.41c1.1 0 2 .9 2 2s-.9 2-2 2z"/><path d="m77.36 152.84h-2.41c-1.1 0-2-.9-2-2s.9-2 2-2h2.41c1.1 0 2 .9 2 2s-.9 2-2 2z"/><path d="m84.93 152.42h-2.41c-1.1 0-2-.9-2-2s.9-2 2-2h2.41c1.1 0 2 .9 2 2s-.9 2-2 2z"/><path d="m84.93 147.19h-2.41c-1.1 0-2-.9-2-2s.9-2 2-2h2.41c1.1 0 2 .9 2 2s-.9 2-2 2z"/><path d="m10.93 56.3h-3.51c-1.1 0-2-.9-2-2s.9-2 2-2h3.51c1.1 0 2 .9 2 2s-.9 2-2 2z"/><path d="m18.85 52.49h-4.73c-1.1 0-2-.9-2-2s.9-2 2-2h4.73c1.1 0 2 .9 2 2s-.9 2-2 2z"/><path d="m44.24 52.49h-3.35c-1.1 0-2-.9-2-2s.9-2 2-2h3.35c1.1 0 2 .9 2 2s-.9 2-2 2z"/><path d="m37.53 45.6h-15.23c-1.1 0-2-.9-2-2s.9-2 2-2h15.23c1.1 0 2 .9 2 2s-.9 2-2 2z"/><path d="m52.23 45.6h-3.35c-1.1 0-2-.9-2-2s.9-2 2-2h3.35c1.1 0 2 .9 2 2s-.9 2-2 2z"/><path d="m79.78 56.3h-3.51c-1.1 0-2-.9-2-2s.9-2 2-2h3.51c1.1 0 2 .9 2 2s-.9 2-2 2z"/><path d="m87.7 52.49h-4.73c-1.1 0-2-.9-2-2s.9-2 2-2h4.73c1.1 0 2 .9 2 2s-.9 2-2 2z"/><path d="m113.09 52.49h-3.35c-1.1 0-2-.9-2-2s.9-2 2-2h3.35c1.1 0 2 .9 2 2s-.9 2-2 2z"/><path d="m106.38 45.6h-15.23c-1.1 0-2-.9-2-2s.9-2 2-2h15.23c1.1 0 2 .9 2 2s-.9 2-2 2z"/><path d="m121.08 45.6h-3.35c-1.1 0-2-.9-2-2s.9-2 2-2h3.35c1.1 0 2 .9 2 2s-.9 2-2 2z"/><path d="m146.9 56.3h-3.51c-1.1 0-2-.9-2-2s.9-2 2-2h3.51c1.1 0 2 .9 2 2s-.9 2-2 2z"/><path d="m154.82 52.49h-4.73c-1.1 0-2-.9-2-2s.9-2 2-2h4.73c1.1 0 2 .9 2 2s-.9 2-2 2z"/><path d="m180.21 52.49h-3.35c-1.1 0-2-.9-2-2s.9-2 2-2h3.35c1.1 0 2 .9 2 2s-.9 2-2 2z"/><path d="m173.5 45.6h-15.23c-1.1 0-2-.9-2-2s.9-2 2-2h15.23c1.1 0 2 .9 2 2s-.9 2-2 2z"/><path d="m188.2 45.6h-3.35c-1.1 0-2-.9-2-2s.9-2 2-2h3.35c1.1 0 2 .9 2 2s-.9 2-2 2z"/><path d="m154.42 155.77h-2.41c-1.1 0-2-.9-2-2s.9-2 2-2h2.41c1.1 0 2 .9 2 2s-.9 2-2 2z"/><path d="m154.42 150.54h-2.41c-1.1 0-2-.9-2-2s.9-2 2-2h2.41c1.1 0 2 .9 2 2s-.9 2-2 2z"/><path d="m146.4 158.38h-2.42c-1.1 0-2-.9-2-2s.9-2 2-2h2.42c1.1 0 2 .9 2 2s-.9 2-2 2z"/><path d="m146.4 153.15h-2.42c-1.1 0-2-.9-2-2s.9-2 2-2h2.42c1.1 0 2 .9 2 2s-.9 2-2 2z"/><path d="m162.56 158.06h-2.42c-1.1 0-2-.9-2-2s.9-2 2-2h2.42c1.1 0 2 .9 2 2s-.9 2-2 2z"/><path d="m162.56 152.84h-2.42c-1.1 0-2-.9-2-2s.9-2 2-2h2.42c1.1 0 2 .9 2 2s-.9 2-2 2z"/><path d="m170.13 152.42h-2.42c-1.1 0-2-.9-2-2s.9-2 2-2h2.42c1.1 0 2 .9 2 2s-.9 2-2 2z"/><path d="m170.13 147.19h-2.42c-1.1 0-2-.9-2-2s.9-2 2-2h2.42c1.1 0 2 .9 2 2s-.9 2-2 2z"/><path d="m90.44 86.97c-1.1 0-2-.9-2-2v-3.97c0-1.1.9-2 2-2s2 .9 2 2v3.97c0 1.1-.9 2-2 2z"/><path d="m65.27 85.93c-1.1 0-2-.9-2-2v-1.89c0-1.1.9-2 2-2s2 .9 2 2v1.89c0 1.1-.9 2-2 2z"/><path d="m58.97 85.38c-1.1 0-2-.9-2-2v-.8c0-1.1.9-2 2-2s2 .9 2 2v.8c0 1.1-.9 2-2 2z"/><path d="m103.03 85.7c-1.1 0-2-.9-2-2v-1.44c0-1.1.9-2 2-2s2 .9 2 2v1.44c0 1.1-.9 2-2 2z"/><path d="m109.33 88.87c-1.1 0-2-.9-2-2v-7.78c0-1.1.9-2 2-2s2 .9 2 2v7.78c0 1.1-.9 2-2 2z"/><path d="m115.62 86.34c-1.1 0-2-.9-2-2v-2.71c0-1.1.9-2 2-2s2 .9 2 2v2.71c0 1.1-.9 2-2 2z"/><path d="m128.21 86.97c-1.1 0-2-.9-2-2v-3.97c0-1.1.9-2 2-2s2 .9 2 2v3.97c0 1.1-.9 2-2 2z"/><path d="m134.5 88.87c-1.1 0-2-.9-2-2v-7.78c0-1.1.9-2 2-2s2 .9 2 2v7.78c0 1.1-.9 2-2 2z"/><path d="m121.91 86.34c-1.1 0-2-.9-2-2v-2.71c0-1.1.9-2 2-2s2 .9 2 2v2.71c0 1.1-.9 2-2 2z"/><path d="m96.74 88.87c-1.1 0-2-.9-2-2v-7.78c0-1.1.9-2 2-2s2 .9 2 2v7.78c0 1.1-.9 2-2 2z"/><path d="m140.61 86.97c-1.1 0-2-.9-2-2v-3.97c0-1.1.9-2 2-2s2 .9 2 2v3.97c0 1.1-.9 2-2 2z"/><path d="m153.2 85.7c-1.1 0-2-.9-2-2v-1.44c0-1.1.9-2 2-2s2 .9 2 2v1.44c0 1.1-.9 2-2 2z"/><path d="m159.5 88.87c-1.1 0-2-.9-2-2v-7.78c0-1.1.9-2 2-2s2 .9 2 2v7.78c0 1.1-.9 2-2 2z"/><path d="m165.79 86.34c-1.1 0-2-.9-2-2v-2.71c0-1.1.9-2 2-2s2 .9 2 2v2.71c0 1.1-.9 2-2 2z"/><path d="m178.38 86.97c-1.1 0-2-.9-2-2v-3.97c0-1.1.9-2 2-2s2 .9 2 2v3.97c0 1.1-.9 2-2 2z"/><path d="m184.67 88.87c-1.1 0-2-.9-2-2v-7.78c0-1.1.9-2 2-2s2 .9 2 2v7.78c0 1.1-.9 2-2 2z"/><path d="m172.08 86.34c-1.1 0-2-.9-2-2v-2.71c0-1.1.9-2 2-2s2 .9 2 2v2.71c0 1.1-.9 2-2 2z"/><path d="m146.91 88.87c-1.1 0-2-.9-2-2v-7.78c0-1.1.9-2 2-2s2 .9 2 2v7.78c0 1.1-.9 2-2 2z"/></g></svg>