<svg viewBox="0 0 200 200" xmlns="http://www.w3.org/2000/svg"><g fill="#272c6b"><path d="m141.24 57.15c-1.19 0-2.36-.17-3.47-.5-2.88-.86-5.02-2.72-6.04-5.25s-.76-5.35.72-7.97c1.39-2.47 3.74-4.46 6.6-5.61s5.93-1.34 8.65-.53c2.88.86 5.02 2.72 6.04 5.25 2.03 5.05-1.25 11.14-7.32 13.58-1.69.68-3.45 1.02-5.17 1.02zm2.98-16.35c-1.21 0-2.46.25-3.68.74-2.02.81-3.66 2.19-4.61 3.87-.87 1.53-1.04 3.13-.49 4.5s1.79 2.41 3.47 2.91c1.85.55 3.98.41 6-.41 4.02-1.62 6.31-5.37 5.1-8.37-.55-1.37-1.79-2.41-3.47-2.91-.74-.22-1.52-.33-2.33-.33z"/><path d="m152.34 47.47c-1.1 0-2-.9-2-2v-38.2c0-.78.45-1.48 1.15-1.81s1.53-.22 2.13.28c.43.36 10.62 9 10.62 17.89s-3.67 11.78-4.09 12.09c-.89.66-2.14.47-2.8-.42s-.47-2.14.42-2.8 2.47-2.15 2.47-8.87c0-4.21-3.27-8.67-5.91-11.58v33.43c0 1.1-.9 2-2 2z"/><rect height="9.33" rx="2.53" width="21.1" x="26.71" y="65.62"/><rect height="9.33" rx="2.53" width="21.1" x="47.81" y="54.15"/><rect height="9.33" rx="2.53" width="21.1" x="70.01" y="31.21"/><rect height="9.33" rx="2.53" width="39.32" x="91.12" y="65.62"/><rect height="9.33" rx="2.53" width="40.03" x="151.67" y="88.67"/><rect height="9.33" rx="2.53" width="21.1" x="130.04" y="111.44"/><rect height="9.33" rx="2.53" width="20.1" x="7.02" y="88.67"/><path d="m197.98 133.43h-195.96c-1.1 0-2-.9-2-2v-103.86c-0-4.58 3.72-8.3 8.3-8.3h183.36c4.58 0 8.3 3.72 8.3 8.3v103.86c0 1.1-.9 2-2 2zm-193.96-4h191.96v-101.86c0-2.37-1.93-4.3-4.3-4.3h-183.36c-2.37 0-4.3 1.93-4.3 4.3z"/><path d="m16.02 180.73h-14c-1.1 0-2-.9-2-2v-46.51c0-1.1.9-2 2-2h14c1.1 0 2 .9 2 2v46.51c0 1.1-.9 2-2 2zm-12-4h10v-42.51h-10z"/><path d="m30.01 180.73h-14c-1.1 0-2-.9-2-2v-46.51c0-1.1.9-2 2-2h14c1.1 0 2 .9 2 2v46.51c0 1.1-.9 2-2 2zm-11.99-4h10v-42.51h-10z"/><path d="m44.01 180.73h-14c-1.1 0-2-.9-2-2v-46.51c0-1.1.9-2 2-2h14c1.1 0 2 .9 2 2v46.51c0 1.1-.9 2-2 2zm-12-4h10v-42.51h-10z"/><rect height="23.25" rx="1.37" width="9.76" x="11.14" y="132.22"/><rect height="23.25" rx="1.37" width="9.76" x="25.13" y="132.22"/><rect height="23.25" rx="1.37" width="9.76" x="53.13" y="132.22"/><rect height="23.25" rx="1.37" width="9.76" x="67.12" y="132.22"/><rect height="23.25" rx="1.37" width="9.76" x="81.12" y="132.22"/><path d="m58.01 180.73h-14c-1.1 0-2-.9-2-2v-46.51c0-1.1.9-2 2-2h14c1.1 0 2 .9 2 2v46.51c0 1.1-.89 2-2 2zm-12-4h10v-42.51h-10z"/><path d="m72.01 180.73h-14c-1.1 0-2-.9-2-2v-46.51c0-1.1.9-2 2-2h14c1.1 0 2 .9 2 2v46.51c0 1.1-.9 2-2 2zm-12-4h10v-42.51h-10z"/><path d="m86 180.73h-14c-1.1 0-2-.9-2-2v-46.51c0-1.1.9-2 2-2h14c1.1 0 2 .9 2 2v46.51c0 1.1-.9 2-2 2zm-11.99-4h10v-42.51h-10z"/><path d="m100 180.73h-14c-1.1 0-2-.9-2-2v-46.51c0-1.1.9-2 2-2h14c1.1 0 2 .9 2 2v46.51c0 1.1-.9 2-2 2zm-12-4h10v-42.51h-10z"/><path d="m114 180.73h-14c-1.1 0-2-.9-2-2v-46.51c0-1.1.9-2 2-2h14c1.1 0 2 .9 2 2v46.51c0 1.1-.9 2-2 2zm-12-4h10v-42.51h-10z"/><path d="m127.99 180.73h-14c-1.1 0-2-.9-2-2v-46.51c0-1.1.9-2 2-2h14c1.1 0 2 .9 2 2v46.51c0 1.1-.9 2-2 2zm-11.99-4h10v-42.51h-10z"/><path d="m141.99 180.73h-14c-1.1 0-2-.9-2-2v-46.51c0-1.1.9-2 2-2h14c1.1 0 2 .9 2 2v46.51c0 1.1-.9 2-2 2zm-12-4h10v-42.51h-10z"/><rect height="23.25" rx="1.37" width="9.76" x="109.12" y="132.22"/><rect height="23.25" rx="1.37" width="9.76" x="123.11" y="132.22"/><rect height="23.25" rx="1.37" width="9.76" x="151.11" y="132.22"/><rect height="23.25" rx="1.37" width="9.76" x="165.1" y="132.22"/><rect height="23.25" rx="1.37" width="9.76" x="179.1" y="132.22"/><path d="m155.99 180.73h-14c-1.1 0-2-.9-2-2v-46.51c0-1.1.9-2 2-2h14c1.1 0 2 .9 2 2v46.51c0 1.1-.9 2-2 2zm-12-4h10v-42.51h-10z"/><path d="m169.99 180.73h-14c-1.1 0-2-.9-2-2v-46.51c0-1.1.9-2 2-2h14c1.1 0 2 .9 2 2v46.51c0 1.1-.9 2-2 2zm-12-4h10v-42.51h-10z"/><path d="m183.98 180.73h-14c-1.1 0-2-.9-2-2v-46.51c0-1.1.9-2 2-2h14c1.1 0 2 .9 2 2v46.51c0 1.1-.9 2-2 2zm-11.99-4h10v-42.51h-10z"/><path d="m197.98 180.73h-14c-1.1 0-2-.9-2-2v-46.51c0-1.1.9-2 2-2h14c1.1 0 2 .9 2 2v46.51c0 1.1-.9 2-2 2zm-12-4h10v-42.51h-10z"/><path d="m178.1 48.98c-.64 0-1.27-.31-1.66-.88-.03-.04-3.14-4.51-6.77-3.82-4.49.85-9.35 4.29-9.4 4.32-.9.64-2.15.43-2.79-.47s-.43-2.15.47-2.79c.23-.16 5.61-3.98 10.97-5 4.41-.84 7.93 2.16 9.66 4.06l7.07-3.95c.96-.54 2.18-.19 2.72.77s.19 2.18-.77 2.72l-8.54 4.77c-.31.17-.64.25-.97.25z"/></g></svg>