<svg viewBox="0 0 200 200" xmlns="http://www.w3.org/2000/svg"><g fill="#272c6b"><path d="m158.75 81.07h-46.05c-.55 0-1.08-.23-1.46-.63s-.57-.94-.54-1.49l1.84-29.46c.48-7.72 6.73-13.77 14.21-13.77h17.94c7.49 0 13.73 6.05 14.21 13.77l1.84 29.46c.03.55-.16 1.09-.54 1.49s-.91.63-1.46.63zm-43.92-4h41.79l-1.71-27.33c-.34-5.52-4.93-10.02-10.22-10.02h-17.94c-5.29 0-9.88 4.49-10.22 10.02l-1.71 27.33z"/><path d="m160.8 100.2h-50.15c-2.65 0-4.81-2.16-4.81-4.81v-13.52c0-2.65 2.16-4.81 4.81-4.81h50.15c2.65 0 4.81 2.16 4.81 4.81v13.52c0 2.65-2.16 4.81-4.81 4.81zm-50.15-19.13c-.44 0-.81.36-.81.81v13.52c0 .44.36.81.81.81h50.15c.44 0 .81-.36.81-.81v-13.52c0-.44-.36-.81-.81-.81z"/><path d="m155.97 180.65h-40.49c-1.01 0-1.87-.76-1.99-1.76l-2.78-23.46c0-.08-.01-.16-.01-.24v-56.99c0-1.1.9-2 2-2h46.05c1.1 0 2 .9 2 2v56.99c0 .08 0 .16-.01.24l-2.78 23.46c-.12 1.01-.97 1.76-1.99 1.76zm-38.71-4h36.94l2.56-21.58v-54.87h-42.05v54.87l2.56 21.58z"/><path d="m145.15 45.36s-1.12 1.12-1.12 5.28v28.13c0 1.1-.9 2-2 2s-2-.9-2-2v-28.13c0-6.26 2.31-8.28 2.82-8.55.61-.33 1.9-.75 2.73.49s-.43 2.78-.43 2.78z"/><path d="m135.72 180.65c-.62 0-1.22-.29-1.61-.81l-18.6-25.11-23.22 25.28c-.58.63-1.49.82-2.27.48s-1.26-1.14-1.19-2l2.9-35.19-2.9-35.19c-.07-.85.41-1.65 1.19-2 .78-.34 1.7-.15 2.27.48l23.22 25.28 18.6-25.11c.51-.69 1.42-.98 2.23-.71.82.27 1.37 1.04 1.37 1.9v70.71c0 .86-.55 1.63-1.37 1.9-.21.07-.42.1-.63.1zm-42.43-67.06 2.43 29.54v.33l-2.43 29.54 20.91-22.77c.4-.44.99-.67 1.58-.64.6.03 1.15.33 1.5.81l16.44 22.19v-58.59l-16.44 22.19c-.36.48-.91.78-1.5.81-.59.04-1.17-.2-1.58-.64z"/><path d="m135.72 145.3h-41.99c-1.1 0-2-.9-2-2s.9-2 2-2h41.99c1.1 0 2 .9 2 2s-.9 2-2 2z"/><path d="m135.72 180.65c-.21 0-.42-.03-.62-.1-.82-.27-1.38-1.04-1.38-1.9v-70.71c0-.86.56-1.63 1.38-1.9s1.72.02 2.24.72l18.43 25.11 23.4-25.28c.58-.63 1.49-.82 2.27-.47.78.34 1.26 1.14 1.19 1.99l-2.9 35.19 2.9 35.19c.07.85-.41 1.65-1.19 1.99s-1.69.15-2.27-.47l-23.4-25.28-18.43 25.11c-.38.52-.99.82-1.61.82zm19.86-31.06c.56 0 1.09.23 1.47.64l21.11 22.81-2.44-29.58c0-.11 0-.22 0-.33l2.44-29.58-21.11 22.81c-.41.44-.99.67-1.58.64-.6-.03-1.15-.33-1.5-.81l-16.25-22.14v58.5l16.25-22.14c.35-.48.9-.78 1.5-.81h.11z"/><path d="m177.72 145.3h-41.99c-1.1 0-2-.9-2-2s.9-2 2-2h41.99c1.1 0 2 .9 2 2s-.9 2-2 2z"/><path d="m130.78 90.89h-9.89c-1.1 0-2-.9-2-2s.9-2 2-2h9.89c1.1 0 2 .9 2 2s-.9 2-2 2z"/><path d="m155.58 153.59c-1.1 0-2-.9-2-2v-16.59c0-1.1.9-2 2-2s2 .9 2 2v16.59c0 1.1-.9 2-2 2z"/><path d="m115.68 153.59c-1.1 0-2-.9-2-2v-16.59c0-1.1.9-2 2-2s2 .9 2 2v16.59c0 1.1-.9 2-2 2z"/><path d="m51.26 128.31c-18.69 0-33.89-25.44-33.89-56.7s15.2-56.71 33.89-56.71 33.89 25.44 33.89 56.7-15.2 56.7-33.89 56.7zm0-109.41c-16.48 0-29.89 23.64-29.89 52.7s13.41 52.7 29.89 52.7 29.89-23.64 29.89-52.7-13.41-52.7-29.89-52.7z"/><path d="m57.94 128.31h-5.42c-1.1 0-2-.9-2-2s.9-2 2-2h5.42c17.49 0 31.73-23.64 31.73-52.7s-14.23-52.7-31.73-52.7h-5.77c-1.1 0-2-.9-2-2s.9-2 2-2h5.77c19.7 0 35.73 25.44 35.73 56.7s-16.03 56.7-35.73 56.7z"/><path d="m68.02 107.5c-.35 0-.7-.09-1.02-.28-.95-.56-1.26-1.79-.7-2.74 4.98-8.37 7.84-20.35 7.84-32.87 0-1.1.9-2 2-2s2 .9 2 2c0 13.21-3.06 25.94-8.4 34.91-.37.63-1.04.98-1.72.98z"/><path d="m51.26 119.46c-15.08 0-26.89-21.02-26.89-47.86s11.81-47.86 26.89-47.86c3.66 0 7.19 1.25 10.5 3.71.89.66 1.07 1.91.41 2.8s-1.91 1.07-2.8.41c-2.6-1.94-5.33-2.92-8.11-2.92-12.41 0-22.89 20.08-22.89 43.86s10.48 43.86 22.89 43.86c2.9 0 5.75-1.07 8.46-3.18.87-.68 2.13-.52 2.81.35s.52 2.13-.35 2.81c-3.43 2.67-7.1 4.03-10.92 4.03z"/><path d="m91.89 180.73c-3.38 0-7.09-.02-10.6-.08-23.87-.38-27.98-9.34-28.37-10.36-.39-1.03.12-2.19 1.16-2.58 1.02-.39 2.16.11 2.56 1.11.11.22 3.78 7.5 24.71 7.83 8.07.13 17.15.06 20.91.02l3.6-33.59c.12-1.1 1.09-1.9 2.2-1.78 1.1.12 1.89 1.1 1.78 2.2l-3.79 35.35c-.11 1.01-.95 1.77-1.96 1.79-.08 0-5.49.07-12.19.07z"/><path d="m55.52 171.58c-4.36 0-7.91-3.55-7.91-7.91v-22.74c0-1.1.9-2 2-2h11.82c1.1 0 2 .9 2 2v22.74c0 4.36-3.55 7.91-7.91 7.91zm-3.91-28.66v20.74c0 2.16 1.75 3.91 3.91 3.91s3.91-1.75 3.91-3.91v-20.74z"/><path d="m112.23 127.5c-.45 0-.9-.15-1.27-.45l-21.41-17.55c-.85-.7-.98-1.96-.28-2.81s1.96-.98 2.82-.28l21.41 17.55c.85.7.98 1.96.28 2.81-.4.48-.97.73-1.55.73z"/><path d="m158.75 127.5c-.58 0-1.17-.26-1.56-.75-.69-.86-.55-2.12.31-2.81l21.88-17.55c.86-.69 2.12-.55 2.81.31s.55 2.12-.31 2.81l-21.88 17.55c-.37.3-.81.44-1.25.44z"/><path d="m64.26 142.92h-18.41c-1.05 0-1.92-.81-2-1.86l-1-14.61c-.04-.55.16-1.1.53-1.5.38-.4.91-.63 1.46-.63h20.41c.55 0 1.08.23 1.46.63.38.41.57.95.53 1.5l-1 14.61c-.07 1.05-.94 1.86-2 1.86zm-16.54-4h14.68l.73-10.61h-16.13l.73 10.61z"/><path d="m57.33 142.92s-.06 0-.09 0c-1.1-.05-1.96-.98-1.91-2.08l.62-14.61c.05-1.1 1.03-1.96 2.08-1.91 1.1.05 1.96.98 1.91 2.08l-.62 14.61c-.04 1.07-.93 1.92-2 1.92z"/></g></svg>