<svg viewBox="0 0 200 200" xmlns="http://www.w3.org/2000/svg"><g fill="#272c6b"><path d="m184.03 177.62c-1.1 0-2-.9-2-2v-51.71c0-1.1.9-2 2-2s2 .9 2 2v51.71c0 1.1-.9 2-2 2z"/><path d="m184.03 98.37c-1.1 0-2-.9-2-2v-40.61c0-1.1.9-2 2-2s2 .9 2 2v40.61c0 1.1-.9 2-2 2z"/><path d="m150.26 88.55c-1.1 0-2-.9-2-2v-30.8c0-1.1.9-2 2-2s2 .9 2 2v30.8c0 1.1-.9 2-2 2z"/><path d="m150.26 177.62c-1.1 0-2-.9-2-2v-61.52c0-1.1.9-2 2-2s2 .9 2 2v61.52c0 1.1-.9 2-2 2z"/><path d="m116.33 177.62c-1.1 0-2-.9-2-2v-23.57c0-1.1.9-2 2-2s2 .9 2 2v23.57c0 1.1-.9 2-2 2z"/><path d="m116.33 126.5c-1.1 0-2-.9-2-2v-68.75c0-1.1.9-2 2-2s2 .9 2 2v68.75c0 1.1-.9 2-2 2z"/><path d="m82.41 177.62c-1.1 0-2-.9-2-2v-72.73c0-1.1.9-2 2-2s2 .9 2 2v72.73c0 1.1-.9 2-2 2z"/><path d="m82.41 77.35c-1.1 0-2-.9-2-2v-19.59c0-1.1.9-2 2-2s2 .9 2 2v19.59c0 1.1-.9 2-2 2z"/><path d="m48.89 177.62c-1.1 0-2-.9-2-2v-51.71c0-1.1.9-2 2-2s2 .9 2 2v51.71c0 1.1-.9 2-2 2z"/><path d="m48.89 98.37c-1.1 0-2-.9-2-2v-40.61c0-1.1.9-2 2-2s2 .9 2 2v40.61c0 1.1-.9 2-2 2z"/><path d="m15.38 177.62c-1.1 0-2-.9-2-2v-37.34c0-1.1.9-2 2-2s2 .9 2 2v37.34c0 1.1-.9 2-2 2z"/><path d="m15.38 112.73c-1.1 0-2-.9-2-2v-54.97c0-1.1.9-2 2-2s2 .9 2 2v54.97c0 1.1-.9 2-2 2z"/><path d="m90.87 104.89h-16.92c-2.5 0-4.53-2.03-4.53-4.53v-22.49c0-2.5 2.03-4.53 4.53-4.53h16.92c2.5 0 4.53 2.03 4.53 4.53v22.49c0 2.5-2.03 4.53-4.53 4.53zm-16.92-27.54c-.29 0-.53.24-.53.53v22.49c0 .29.24.53.53.53h16.92c.29 0 .53-.24.53-.53v-22.49c0-.29-.24-.53-.53-.53z"/><path d="m124.79 154.05h-16.92c-2.5 0-4.53-2.03-4.53-4.53v-22.49c0-2.5 2.03-4.53 4.53-4.53h16.92c2.5 0 4.53 2.03 4.53 4.53v22.49c0 2.5-2.03 4.53-4.53 4.53zm-16.91-27.55c-.29 0-.53.24-.53.53v22.49c0 .29.24.53.53.53h16.92c.29 0 .53-.24.53-.53v-22.49c0-.29-.24-.53-.53-.53z"/><path d="m158.72 116.1h-16.92c-2.5 0-4.53-2.03-4.53-4.53v-22.49c0-2.5 2.03-4.53 4.53-4.53h16.92c2.5 0 4.53 2.03 4.53 4.53v22.49c0 2.5-2.03 4.53-4.53 4.53zm-16.92-27.55c-.29 0-.53.24-.53.53v22.49c0 .29.24.53.53.53h16.92c.29 0 .53-.24.53-.53v-22.49c0-.29-.24-.53-.53-.53z"/><path d="m192.49 125.91h-16.92c-2.5 0-4.53-2.03-4.53-4.53v-22.49c0-2.5 2.03-4.53 4.53-4.53h16.92c2.5 0 4.53 2.03 4.53 4.53v22.49c0 2.5-2.03 4.53-4.53 4.53zm-16.92-27.54c-.29 0-.53.24-.53.53v22.49c0 .29.24.53.53.53h16.92c.29 0 .53-.24.53-.53v-22.49c0-.29-.24-.53-.53-.53z"/><path d="m57.35 125.91h-16.92c-2.5 0-4.53-2.03-4.53-4.53v-22.49c0-2.5 2.03-4.53 4.53-4.53h16.92c2.5 0 4.53 2.03 4.53 4.53v22.49c0 2.5-2.03 4.53-4.53 4.53zm-16.92-27.54c-.29 0-.53.24-.53.53v22.49c0 .29.24.53.53.53h16.92c.29 0 .53-.24.53-.53v-22.49c0-.29-.24-.53-.53-.53z"/><path d="m23.84 140.27h-16.92c-2.5 0-4.53-2.03-4.53-4.53v-22.49c0-2.5 2.03-4.53 4.53-4.53h16.92c2.5 0 4.53 2.03 4.53 4.53v22.49c0 2.5-2.03 4.53-4.53 4.53zm-16.92-27.54c-.29 0-.53.24-.53.53v22.49c0 .29.24.53.53.53h16.92c.29 0 .53-.24.53-.53v-22.49c0-.29-.24-.53-.53-.53z"/><path d="m88.41 91.12h-12c-1.1 0-2-.9-2-2s.9-2 2-2h12c1.1 0 2 .9 2 2s-.9 2-2 2z"/><path d="m54.89 112.14h-12c-1.1 0-2-.9-2-2s.9-2 2-2h12c1.1 0 2 .9 2 2s-.9 2-2 2z"/><path d="m21.38 126.5h-12c-1.1 0-2-.9-2-2s.9-2 2-2h12c1.1 0 2 .9 2 2s-.9 2-2 2z"/><path d="m122.33 141.26h-12c-1.1 0-2-.9-2-2s.9-2 2-2h12c1.1 0 2 .9 2 2s-.9 2-2 2z"/><path d="m156.26 102.33h-12c-1.1 0-2-.9-2-2s.9-2 2-2h12c1.1 0 2 .9 2 2s-.9 2-2 2z"/><path d="m190.03 112.27h-12c-1.1 0-2-.9-2-2s.9-2 2-2h12c1.1 0 2 .9 2 2s-.9 2-2 2z"/><path d="m15.38 42.43c-5.53 0-10.02-4.5-10.02-10.02s4.5-10.02 10.02-10.02 10.02 4.5 10.02 10.02-4.5 10.02-10.02 10.02zm0-16.05c-3.32 0-6.02 2.7-6.02 6.02s2.7 6.02 6.02 6.02 6.02-2.7 6.02-6.02-2.7-6.02-6.02-6.02z"/><path d="m48.89 42.43c-5.53 0-10.02-4.5-10.02-10.02s4.5-10.02 10.02-10.02 10.02 4.5 10.02 10.02-4.5 10.02-10.02 10.02zm0-16.05c-3.32 0-6.02 2.7-6.02 6.02s2.7 6.02 6.02 6.02 6.02-2.7 6.02-6.02-2.7-6.02-6.02-6.02z"/><path d="m82.41 42.43c-5.53 0-10.02-4.5-10.02-10.02s4.5-10.02 10.02-10.02 10.02 4.5 10.02 10.02-4.5 10.02-10.02 10.02zm0-16.05c-3.32 0-6.02 2.7-6.02 6.02s2.7 6.02 6.02 6.02 6.02-2.7 6.02-6.02-2.7-6.02-6.02-6.02z"/><path d="m116.75 42.43c-5.53 0-10.02-4.5-10.02-10.02s4.5-10.02 10.02-10.02 10.02 4.5 10.02 10.02-4.5 10.02-10.02 10.02zm0-16.05c-3.32 0-6.02 2.7-6.02 6.02s2.7 6.02 6.02 6.02 6.02-2.7 6.02-6.02-2.7-6.02-6.02-6.02z"/><path d="m150.26 42.43c-5.53 0-10.02-4.5-10.02-10.02s4.5-10.02 10.02-10.02 10.02 4.5 10.02 10.02-4.5 10.02-10.02 10.02zm0-16.05c-3.32 0-6.02 2.7-6.02 6.02s2.7 6.02 6.02 6.02 6.02-2.7 6.02-6.02-2.7-6.02-6.02-6.02z"/><path d="m183.78 42.43c-5.53 0-10.02-4.5-10.02-10.02s4.5-10.02 10.02-10.02 10.02 4.5 10.02 10.02-4.5 10.02-10.02 10.02zm0-16.05c-3.32 0-6.02 2.7-6.02 6.02s2.7 6.02 6.02 6.02 6.02-2.7 6.02-6.02-2.7-6.02-6.02-6.02z"/></g></svg>