<svg viewBox="0 0 200 200" xmlns="http://www.w3.org/2000/svg"><g fill="#272c6b"><path d="m11.47 120.16c-5.53 0-10.02-4.5-10.02-10.02s4.5-10.02 10.02-10.02 10.02 4.5 10.02 10.02-4.5 10.02-10.02 10.02zm0-16.04c-3.32 0-6.02 2.7-6.02 6.02s2.7 6.02 6.02 6.02 6.02-2.7 6.02-6.02-2.7-6.02-6.02-6.02z"/><path d="m126.83 89.61c-5.53 0-10.02-4.5-10.02-10.02s4.5-10.02 10.02-10.02 10.02 4.5 10.02 10.02-4.5 10.02-10.02 10.02zm0-16.04c-3.32 0-6.02 2.7-6.02 6.02s2.7 6.02 6.02 6.02 6.02-2.7 6.02-6.02-2.7-6.02-6.02-6.02z"/><path d="m188.52 109.73c-5.53 0-10.02-4.5-10.02-10.02s4.5-10.02 10.02-10.02 10.02 4.5 10.02 10.02-4.5 10.02-10.02 10.02zm0-16.05c-3.32 0-6.02 2.7-6.02 6.02s2.7 6.02 6.02 6.02 6.02-2.7 6.02-6.02-2.7-6.02-6.02-6.02z"/><path d="m16.6 112.14h-10.81c-1.1 0-2-.9-2-2s.9-2 2-2h10.81c34.68 0 53.06-9.58 69.28-18.04 12.34-6.43 24-12.51 40.41-12.51 27.99 0 40.91 9.35 48.63 14.93 2.56 1.85 4.59 3.32 6.37 3.94 7.5 2.59 14.83 1.29 14.9 1.28 1.09-.2 2.13.52 2.33 1.6s-.51 2.13-1.6 2.33c-.34.06-8.41 1.52-16.94-1.43-2.34-.81-4.58-2.43-7.41-4.48-7.8-5.64-19.59-14.17-46.29-14.17-15.43 0-26.15 5.59-38.56 12.06-16.63 8.67-35.47 18.49-71.12 18.49z"/><path d="m196.18 121.91c-.93 0-1.76-.65-1.96-1.6l-2.84-13.8c-.22-1.08.47-2.14 1.56-2.36 1.08-.22 2.14.47 2.36 1.56l2.84 13.8c.22 1.08-.47 2.14-1.56 2.36-.14.03-.27.04-.41.04z"/><path d="m190.41 93.91c-.93 0-1.76-.65-1.96-1.6l-.05-.27c-.38.77-1.22 1.23-2.12 1.09-1.09-.18-1.83-1.21-1.65-2.29l1.61-9.91c.15-.95.97-1.66 1.93-1.68h.04c.95 0 1.77.67 1.96 1.6l2.2 10.65c.22 1.08-.47 2.14-1.56 2.36-.14.03-.27.04-.41.04z"/><path d="m164.11 137.11s-.05 0-.07 0c-.95-.03-1.74-.72-1.9-1.66l-6.61-38.04-5.51 17.72c-.25.79-.96 1.35-1.78 1.4s-1.6-.41-1.95-1.17l-6.42-14.05-6 9.66c-.43.68-1.22 1.05-2.02.92s-1.44-.72-1.63-1.51l-5.35-22.3c-.26-1.07.41-2.15 1.48-2.41s2.15.4 2.41 1.48l4.23 17.65 5.44-8.76c.39-.63 1.09-.99 1.83-.94s1.39.49 1.69 1.17l5.79 12.68 6.41-20.64c.27-.88 1.13-1.46 2.04-1.4.92.06 1.68.74 1.84 1.65l6.39 36.78 5.79-23.69c.21-.88 1-1.51 1.9-1.52.87-.02 1.71.58 1.96 1.45l5.6 19.55 2.23-13.71c.18-1.09 1.2-1.83 2.29-1.65s1.83 1.2 1.65 2.29l-3.66 22.53c-.15.92-.92 1.62-1.86 1.68-.96.05-1.78-.55-2.04-1.45l-5.99-20.89-6.28 25.68c-.22.9-1.02 1.52-1.94 1.52z"/><path d="m116.05 100.71c-.59 0-1.16-.26-1.55-.73l-7.97-9.74-6.39-6.42-6.56 7.42c-.38.43-.93.68-1.5.68-.57 0-1.12-.25-1.5-.68l-8.07-9.15c-.1-.12-.19-.24-.26-.38l-7.89-14.72-6.97-5.91-6.92 1.63c-.98.24-1.99-.31-2.34-1.26l-7.74-21.16-6.45-2.26-6.48 2.44-7.63 18.23c-.22.52-.65.93-1.18 1.11l-7.21 2.54-7.73 19.64c-.22.56-.68.99-1.25 1.17s-1.19.1-1.7-.22l-8.03-5.19c-.93-.6-1.19-1.84-.59-2.77s1.84-1.19 2.77-.59l5.98 3.87 7.17-18.21c.21-.54.65-.96 1.2-1.15l7.23-2.55 7.62-18.2c.21-.51.62-.9 1.14-1.1l7.97-3c.44-.17.92-.17 1.37-.02l8.03 2.81c.57.2 1.01.64 1.22 1.2l7.46 20.38 6.18-1.46c.62-.15 1.27 0 1.75.42l8.03 6.81c.19.16.35.36.47.58l7.96 14.85 6.42 7.28 6.47-7.32c.37-.41.89-.66 1.44-.67s1.09.2 1.48.59l7.97 8s.09.09.13.14l5.62 6.87 3.22-11.16c.31-1.06 1.41-1.67 2.48-1.37 1.06.31 1.67 1.42 1.37 2.48l-4.28 14.82c-.21.71-.79 1.26-1.52 1.4-.13.03-.27.04-.4.04z"/><path d="m126.83 142.5c-1.1 0-2-.9-2-2v-52.89c0-1.1.9-2 2-2s2 .9 2 2v52.89c0 1.1-.9 2-2 2z"/><path d="m126.83 73.57c-1.1 0-2-.9-2-2v-47.19c0-1.1.9-2 2-2s2 .9 2 2v47.19c0 1.1-.9 2-2 2z"/><path d="m15.42 177.62c-.48 0-.96-.02-1.45-.07-4.08-.38-7.76-2.32-10.38-5.48-2.62-3.15-3.85-7.13-3.47-11.21s2.32-7.77 5.48-10.38c3.15-2.62 7.14-3.85 11.21-3.47 8.42.78 14.63 8.27 13.85 16.69-.38 4.08-2.32 7.77-5.48 10.38-2.78 2.3-6.2 3.53-9.76 3.54zm-.05-26.67c-2.63 0-5.16.91-7.22 2.61-2.33 1.93-3.77 4.66-4.05 7.67-.28 3.02.63 5.96 2.56 8.29s4.66 3.77 7.67 4.05c6.23.57 11.76-4.01 12.34-10.24.58-6.22-4.01-11.76-10.24-12.34-.36-.03-.72-.05-1.07-.05z"/><path d="m15.39 164.28c-.4 0-.81-.12-1.16-.37l-10.85-7.75c-.9-.64-1.11-1.89-.47-2.79s1.89-1.11 2.79-.47l10.85 7.75c.9.64 1.11 1.89.47 2.79-.39.55-1.01.84-1.63.84z"/><path d="m57.66 177.62c-2.63 0-5.22-.68-7.56-2.02-3.56-2.03-6.12-5.32-7.2-9.27s-.56-8.09 1.46-11.65c2.03-3.56 5.32-6.12 9.27-7.2 8.16-2.24 16.61 2.58 18.85 10.73 1.08 3.95.56 8.09-1.46 11.65-2.03 3.56-5.32 6.12-9.27 7.2-1.35.37-2.72.55-4.08.55zm.02-26.68c-.99 0-2 .13-3 .41-6.03 1.65-9.59 7.9-7.93 13.93.8 2.92 2.69 5.35 5.32 6.85s5.69 1.88 8.61 1.08c6.03-1.65 9.58-7.9 7.93-13.93-1.38-5.03-5.96-8.34-10.93-8.34z"/><path d="m57.69 164.28c-.17 0-.34-.02-.51-.07-1.07-.28-1.7-1.38-1.42-2.45l3.42-12.89c.28-1.07 1.38-1.7 2.45-1.42s1.7 1.38 1.42 2.45l-3.42 12.89c-.24.9-1.05 1.49-1.93 1.49z"/><path d="m99.97 177.62c-2.35 0-4.68-.54-6.84-1.62-7.56-3.78-10.65-13.01-6.87-20.57 3.78-7.56 13.01-10.65 20.57-6.87 3.67 1.83 6.4 4.98 7.69 8.86 1.3 3.89 1 8.04-.83 11.71s-4.98 6.4-8.86 7.69c-1.6.53-3.24.8-4.87.8zm-10.13-20.4c-2.79 5.59-.51 12.41 5.08 15.21 2.71 1.35 5.78 1.57 8.65.61s5.2-2.98 6.55-5.69 1.57-5.78.61-8.65-2.98-5.2-5.69-6.55c-5.59-2.79-12.41-.51-15.21 5.08z"/><path d="m88.84 171.59c-.65 0-1.29-.32-1.67-.9-.61-.92-.35-2.16.58-2.77l11.15-7.31c.92-.61 2.16-.35 2.77.58.61.92.35 2.16-.58 2.77l-11.15 7.31c-.34.22-.72.33-1.09.33z"/><path d="m142.25 177.62c-2.98 0-5.9-.87-8.44-2.56-7.05-4.67-8.98-14.21-4.31-21.25 2.26-3.41 5.72-5.74 9.73-6.56 4.01-.81 8.11-.02 11.52 2.25 7.05 4.67 8.98 14.21 4.31 21.25-2.26 3.41-5.72 5.74-9.73 6.56-1.03.21-2.06.31-3.08.31zm.05-26.68c-.76 0-1.52.08-2.28.23-2.97.6-5.52 2.32-7.2 4.85-3.45 5.21-2.02 12.26 3.19 15.71 2.52 1.67 5.54 2.26 8.52 1.66 2.97-.6 5.52-2.32 7.2-4.85 3.45-5.21 2.02-12.26-3.19-15.71-1.88-1.25-4.04-1.89-6.24-1.89z"/><path d="m130.32 170.18c-.74 0-1.45-.41-1.8-1.12-.49-.99-.08-2.19.91-2.68l11.96-5.9c.99-.49 2.19-.08 2.68.91s.08 2.19-.91 2.68l-11.96 5.9c-.28.14-.59.21-.88.21z"/><path d="m184.57 177.62c-1.16 0-2.34-.13-3.51-.41-8.23-1.94-13.35-10.21-11.42-18.44 1.94-8.23 10.21-13.35 18.44-11.42 8.23 1.94 13.35 10.21 11.42 18.44-1.66 7.05-7.97 11.82-14.93 11.82zm0-26.68c-5.14 0-9.81 3.53-11.03 8.74-1.43 6.08 2.35 12.2 8.44 13.63 6.08 1.43 12.2-2.35 13.63-8.44 1.43-6.08-2.35-12.2-8.44-13.63-.87-.2-1.74-.3-2.6-.3z"/><path d="m194.26 173.45c-.49 0-.99-.18-1.38-.55l-9.68-9.17c-.8-.76-.84-2.03-.08-2.83s2.03-.84 2.83-.08l9.68 9.17c.8.76.84 2.03.08 2.83-.39.42-.92.62-1.45.62z"/><path d="m192.44 142.5h-184.88c-4.16 0-7.54-3.38-7.54-7.54v-108.15c0-4.16 3.38-7.54 7.54-7.54h184.87c4.16 0 7.54 3.38 7.54 7.54v108.14c0 4.16-3.38 7.54-7.54 7.54zm-184.88-119.23c-1.95 0-3.54 1.59-3.54 3.54v108.14c0 1.95 1.59 3.54 3.54 3.54h184.87c1.95 0 3.54-1.59 3.54-3.54v-108.14c0-1.95-1.59-3.54-3.54-3.54z"/></g></svg>